<svg width="108" height="128" viewBox="0 0 108 128" xmlns="http://www.w3.org/2000/svg" aria-hidden="true">
  <defs>
    <linearGradient id="bl-g" x1="0" y1="1" x2="1" y2="0"><stop offset="0%" stop-color="#2e7d32"/><stop offset="100%" stop-color="#81c784"/></linearGradient>
    <linearGradient id="bs-g" x1="0" y1="0" x2="0" y2="1"><stop offset="0%" stop-color="#66bb6a"/><stop offset="100%" stop-color="#388e3c"/></linearGradient>
    <clipPath id="b1-clip"><rect x="0" y="68" width="108" height="60"/></clipPath>
  </defs>
  <!-- Shoot -->
  <path d="M 46,54 C 46,42 56,24 70,14 C 74,28 68,48 52,56 Z" fill="url(#bl-g)"/>
  <path d="M 48,52 C 54,44 62,30 68,16" stroke="#c8e6c9" stroke-width=".9" fill="none" opacity=".55"/>
  <path d="M 46,58 C 40,52 30,44 26,36 C 33,38 43,50 46,58 Z" fill="#66bb6a" opacity=".55"/>
  <line x1="46" y1="54" x2="46" y2="68" stroke="url(#bs-g)" stroke-width="3" stroke-linecap="round"/>
  <circle cx="46" cy="28" r="4.5" fill="#4caf50"/>
  <circle cx="46" cy="28" r="2.5" fill="#e8f5e9"/>
  <!-- Soil -->
  <line x1="10" y1="68" x2="98" y2="68" stroke="#8d6e63" stroke-width="1.2" opacity=".3"/>
  <!-- Arcs below soil -->
  <g clip-path="url(#b1-clip)">
    <path d="M 30,68 Q 46,80 62,68" fill="none" stroke="#4caf50" stroke-width="2" stroke-linecap="round" opacity=".9"/>
    <path d="M 18,68 Q 46,90 74,68" fill="none" stroke="#2e7d32" stroke-width="1.6" stroke-linecap="round" opacity=".7"/>
    <path d="M 8,68 Q 46,102 84,68" fill="none" stroke="#1b5e20" stroke-width="1.2" stroke-linecap="round" opacity=".5"/>
    <path d="M 24,72 Q 46,86 68,72" fill="none" stroke="#66bb6a" stroke-width="1.4" stroke-linecap="round" opacity=".6"/>
    <path d="M 14,76 Q 46,96 78,76" fill="none" stroke="#388e3c" stroke-width="1" stroke-linecap="round" opacity=".4"/>
  </g>
  <circle cx="46" cy="68" r="3.5" fill="#4caf50" opacity=".9"/>
  <circle cx="46" cy="68" r="6" fill="none" stroke="#4caf50" stroke-width="1" opacity=".3"/>
</svg>
